:SAMPLES-PER-SECOND 30
:FULLY-SPECIFIED
:DEGREES
98
root  11.09128862 38.12577856 -12.21968884 -2.289750099 -48.74069977 2.203150034
lfemur  -30.36859703 5.4061203 -2.675132275
ltibia  -1.491570742e-006 -8.364404493e-007 68.64279175
lfoot  5.521815751e-007 0.03323891386 -17.74550056
ltoes  -4.250644065 -19.5611806 -102.515957
rfemur  -11.71989441 13.80659962 6.516179085
rtibia  -8.727266732e-007 2.533748784e-007 50.5105896
rfoot  -2.316020982e-006 -28.9522934 -9.769517899
rtoes  5.373923086 19.29304026 -105.8922705
lowerback  8.829099655 0.8588309884 -1.631700039
upperback  3.753550053 0.9236069918 -1.199579954
thorax  -1.069049954 0.4283159971 -0.4078589976
rclavicle  0 -9.442270133e-015 7.951389973e-016
rhumerus  8.788319588 11.74860001 -76.72889709
rradius  -7.782817793e-012 0.001642658608 142.3059998
rwrist  0.002739921212 0.003270594636 -21.34900093
rthumb  -92.93752616 -24.25625642 -97.11982154
rhand  -7.920061211e-032 -33.2840004 9.303460121
rfingers  -90 -7.125020027 -90
lclavicle  0 -9.442270133e-015 7.951389973e-016
lhumerus  5.183459759 -5.275690079 71.00319672
lradius  1.032090038e-011 -0.0007688826881 140.651001
lwrist  1.816137865e-011 1.409039812e-011 8.561349869
lthumb  89.89689403 5.08795885 91.16245106
lhand  -1.496451383e-031 -27.76390076 20.11240005
lfingers  90 7.125020027 -90
lowerneck  1.940420032 5.228340149 -7.988520145
upperneck  33.06489944 6.211439133 3.43922925
head  9.820670128 1.952879906 2.995109797
99
root  11.25091117 38.29866544 -12.10048856 -2.283400059 -49.30339813 2.366719961
lfemur  -30.60149574 5.79723978 -2.547704458
ltibia  -1.491570742e-006 -8.364404493e-007 68.32368469
lfoot  5.521815751e-007 0.7021587491 -18.98289871
ltoes  -4.250644065 -19.5611806 -102.515957
rfemur  -11.94279385 14.04780006 6.109349251
rtibia  -8.727266732e-007 2.533748784e-007 49.9309845
rfoot  -2.316020982e-006 -27.76149178 -10.1357975
rtoes  5.373923086 19.29304026 -105.8922705
lowerback  8.81842041 1.104200006 -1.317470074
upperback  3.86074996 1.265730023 -1.564810038
thorax  -0.9388380051 0.6020830274 -0.9921640158
rclavicle  0 -9.442270133e-015 7.951389973e-016
rhumerus  8.838009834 10.96010017 -76.90149689
rradius  -7.782816058e-012 0.001642658608 141.6399994
rwrist  0.002739921212 0.003270594636 -21.54310036
rthumb  -92.93752616 -24.25625642 -97.11982154
rhand  -7.920061211e-032 -33.2840004 9.303460121
rfingers  -90 -7.125020027 -90
lclavicle  0 -9.442270133e-015 7.951389973e-016
lhumerus  5.692759991 -4.737050056 70.76270294
lradius  1.032090038e-011 -0.0006900570006 140.1309967
lwrist  1.816137865e-011 1.409039812e-011 9.91065979
lthumb  89.89689403 5.08795885 91.16245106
lhand  -1.496451383e-031 -27.76390076 20.11240005
lfingers  90 7.125020027 -90
lowerneck  2.78151989 5.196420193 -7.482389927
upperneck  33.64339828 6.159340382 2.868960619
head  9.939949989 1.893419981 2.692859888
100
root  11.42857769 38.48222147 -11.97131074 -2.106619835 -49.85770035 2.378240108
lfemur  -30.91319656 6.099099636 -2.310220242
ltibia  -1.491570742e-006 -8.364404493e-007 67.94429016
lfoot  5.521815751e-007 0.8132350445 -19.35379791
ltoes  -4.250644065 -19.5611806 -102.515957
rfemur  -12.23579693 14.30049992 5.779299736
rtibia  -8.727266732e-007 2.533748784e-007 49.32159805
rfoot  -2.316020982e-006 -26.36759758 -10.4649992
rtoes  5.373923086 19.29304026 -105.8922705
lowerback  8.804439545 1.32396996 -0.8070279956
upperback  3.961999893 1.589570045 -1.943470001
thorax  -0.798781991 0.7702789903 -1.698140025
rclavicle  0 -9.442270133e-015 7.951389973e-016
rhumerus  9.203948975 9.957540512 -76.99220276
rradius  -7.782816058e-012 0.001642658608 140.9199982
rwrist  0.002739921212 0.003270594636 -21.96640015
rthumb  -92.93752616 -24.25625642 -97.11982154
rhand  -7.920061211e-032 -33.2840004 9.303460121
rfingers  -90 -7.125020027 -90
lclavicle  0 -9.442270133e-015 7.951389973e-016
lhumerus  6.38326931 -4.17538023 70.41230011
lradius  1.032090038e-011 -0.000610144285 139.5359955
lwrist  1.816137865e-011 1.409039812e-011 11.35929966
lthumb  89.89689403 5.08795885 91.16245106
lhand  -1.496451383e-031 -27.76390076 20.11240005
lfingers  90 7.125020027 -90
lowerneck  3.615619898 5.176859856 -7.015769958
upperneck  34.17470169 6.124090195 2.349080086
head  10.03979969 1.846840024 2.413230181
101
root  11.60675559 38.68111137 -11.83282221 -1.915770173 -50.39490128 2.391659975
lfemur  -31.21739578 6.30657053 -2.067693233
ltibia  -1.491570742e-006 -8.364404493e-007 67.50949097
lfoot  5.521815751e-007 0.6249768734 -18.67480087
ltoes  -4.250644065 -19.5611806 -102.515957
rfemur  -12.51119423 14.56989956 5.455229282
rtibia  -8.727266732e-007 2.533748784e-007 48.69958878
rfoot  -2.316020982e-006 -24.94779396 -10.77629852
rtoes  5.373923086 19.29304026 -105.8922705
lowerback  8.749879837 1.436660051 -0.494833976
upperback  4.098090172 1.759490013 -2.173310041
thorax  -0.6066899896 0.8598740101 -2.122900009
rclavicle  0 -9.442270133e-015 7.951389973e-016
rhumerus  10.03069878 9.142569542 -76.77880096
rradius  -7.782816926e-012 0.001642658608 140.1340027
rwrist  0.002739921212 0.003270594636 -22.88030052
rthumb  -92.93752616 -24.25625642 -97.11982154
rhand  -7.920061211e-032 -33.2840004 9.303460121
rfingers  -90 -7.125020027 -90
lclavicle  0 -9.442270133e-015 7.951389973e-016
lhumerus  7.003520012 -3.33781004 70.07610321
lradius  1.032090038e-011 -0.0005291051348 139.1139984
lwrist  1.816137865e-011 1.409039812e-011 12.58409977
lthumb  89.89689403 5.08795885 91.16245106
lhand  -1.496451383e-031 -27.76390076 20.11240005
lfingers  90 7.125020027 -90
lowerneck  4.381060123 5.277959824 -7.029429913
upperneck  34.57419968 6.256890297 1.968949318
head  10.07509995 1.840450048 2.271810055
